SplineFontDB: 3.2
FontName: YuFanXinYu-Bold
FullName: YuFanXinYu-Bold
FamilyName: YuFanXinYu
Weight: Bold
Copyright: Copyright (c) 2022, YuFan
UComments: "2022-3-2: Created with FontForge (http://fontforge.org)"
Version: 001.000
ItalicAngle: 0
UnderlinePosition: -90
UnderlineWidth: 45
Ascent: 720
Descent: 180
InvalidEm: 0
LayerCount: 2
Layer: 0 0 "+gMxmbwAA" 1
Layer: 1 0 "+Uk1mbwAA" 0
XUID: [1021 811 374436730 30709]
StyleMap: 0x0020
FSType: 0
OS2Version: 3
OS2_WeightWidthSlopeOnly: 0
OS2_UseTypoMetrics: 1
CreationTime: 1646206483
ModificationTime: 1646403748
PfmFamily: 81
TTFWeight: 700
TTFWidth: 5
LineGap: 81
VLineGap: 0
OS2TypoAscent: 0
OS2TypoAOffset: 1
OS2TypoDescent: 0
OS2TypoDOffset: 1
OS2TypoLinegap: 81
OS2WinAscent: 0
OS2WinAOffset: 1
OS2WinDescent: 0
OS2WinDOffset: 1
HheadAscent: 0
HheadAOffset: 1
HheadDescent: 0
HheadDOffset: 1
OS2Vendor: 'PfEd'
OS2CodePages: 00040001.00000000
MarkAttachClasses: 1
DEI: 91125
LangName: 1033 "" "" "" "" "" "" "" "" "YuFan" "" "" "" "" "" "" "" "YuFanXinYu" "Bold"
LangName: 2052 "" "+T1l+QWWwi+0A" "Bold" "" "+T1l+QWWwi+0A--Bold" "" "" "" "+T1l+QQAA" "" "" "" "" "" "" "" "+T1l+QWWwi+0A" "Bold"
Encoding: UnicodeBmp
UnicodeInterp: none
NameList: AGL For New Fonts
DisplaySize: -48
AntiAlias: 1
FitToEm: 0
WinInfo: 22800 20 10
BeginPrivate: 0
EndPrivate
Grid
-900 1546 m 0
 1800 1546 l 1024
EndSplineSet
BeginChars: 65536 21

StartChar: uni4F59
Encoding: 20313 20313 1
Width: 720
Flags: HW
LayerCount: 2
Fore
SplineSet
681.200195312 381.200195312 m 2
 692.900390625 369.5 692.900390625 350.5 681.200195312 338.799804688 c 0
 675.400390625 332.900390625 667.700195312 330 660 330 c 0
 652.299804688 330 644.700195312 332.900390625 638.799804688 338.799804688 c 2
 381.200195312 596.400390625 l 2
 369.5 608.099609375 350.5 608.099609375 338.799804688 596.400390625 c 2
 81.2001953125 338.799804688 l 2
 69.5 327.099609375 50.5 327.099609375 38.7998046875 338.799804688 c 0
 27.099609375 350.5 27.099609375 369.5 38.7998046875 381.200195312 c 2
 296.400390625 638.799804688 l 2
 331.5 673.900390625 388.5 673.900390625 423.599609375 638.799804688 c 2
 681.200195312 381.200195312 l 2
480 210 m 2
 390 210 l 1
 390 -120 l 2
 390 -136.599609375 376.599609375 -150 360 -150 c 0
 343.400390625 -150 330 -136.599609375 330 -120 c 2
 330 210 l 1
 240 210 l 2
 190.400390625 210 150 250.400390625 150 300 c 2
 150 360 l 2
 150 376.599609375 163.400390625 390 180 390 c 0
 196.599609375 390 210 376.599609375 210 360 c 2
 210 300 l 2
 210 283.5 223.5 270 240 270 c 2
 330 270 l 1
 330 390 l 1
 240 390 l 2
 223.400390625 390 210 403.400390625 210 420 c 0
 210 436.599609375 223.400390625 450 240 450 c 2
 480 450 l 2
 496.599609375 450 510 436.599609375 510 420 c 0
 510 403.400390625 496.599609375 390 480 390 c 2
 390 390 l 1
 390 270 l 1
 480 270 l 2
 496.5 270 510 283.5 510 300 c 2
 510 360 l 2
 510 376.599609375 523.400390625 390 540 390 c 0
 556.599609375 390 570 376.599609375 570 360 c 2
 570 300 l 2
 570 250.400390625 529.599609375 210 480 210 c 2
120 150 m 0
 202.700195312 150 270 82.7001953125 270 0 c 0
 270 -82.7001953125 202.700195312 -150 120 -150 c 0
 103.400390625 -150 90 -136.599609375 90 -120 c 0
 90 -103.400390625 103.400390625 -90 120 -90 c 0
 169.599609375 -90 210 -49.599609375 210 0 c 0
 210 49.599609375 169.599609375 90 120 90 c 0
 103.400390625 90 90 103.400390625 90 120 c 0
 90 136.599609375 103.400390625 150 120 150 c 0
600 90 m 0
 550.400390625 90 510 49.599609375 510 0 c 0
 510 -49.599609375 550.400390625 -90 600 -90 c 0
 616.599609375 -90 630 -103.400390625 630 -120 c 0
 630 -136.599609375 616.599609375 -150 600 -150 c 0
 517.299804688 -150 450 -82.7001953125 450 0 c 0
 450 82.7001953125 517.299804688 150 600 150 c 0
 616.599609375 150 630 136.599609375 630 120 c 0
 630 103.400390625 616.599609375 90 600 90 c 0
EndSplineSet
EndChar

StartChar: uni65B0
Encoding: 26032 26032 2
Width: 720
Flags: HW
LayerCount: 2
Fore
SplineSet
270 480 m 2
 270 440.900390625 244.900390625 407.5 210 395.099609375 c 1
 210 335.099609375 l 1
 244.900390625 347.5 270 380.900390625 270 420 c 0
 270 436.599609375 283.400390625 450 300 450 c 0
 316.599609375 450 330 436.599609375 330 420 c 0
 330 347.5 278.400390625 286.900390625 210 273 c 1
 210 210 l 1
 300 210 l 2
 316.599609375 210 330 196.599609375 330 180 c 0
 330 163.400390625 316.599609375 150 300 150 c 2
 210 150 l 1
 210 87 l 1
 278.400390625 73 330 12.400390625 330 -60 c 2
 330 -120 l 2
 330 -136.599609375 316.599609375 -150 300 -150 c 0
 283.400390625 -150 270 -136.599609375 270 -120 c 2
 270 -60 l 2
 270 -20.7998046875 244.900390625 12.5 210 24.900390625 c 1
 210 -120 l 2
 210 -136.599609375 196.599609375 -150 180 -150 c 0
 163.400390625 -150 150 -136.599609375 150 -120 c 2
 150 24.900390625 l 1
 115.099609375 12.5 90 -20.900390625 90 -60 c 2
 90 -120 l 2
 90 -136.599609375 76.599609375 -150 60 -150 c 0
 43.400390625 -150 30 -136.599609375 30 -120 c 2
 30 -60 l 2
 30 12.400390625 81.599609375 73 150 87 c 1
 150 150 l 1
 60 150 l 2
 43.400390625 150 30 163.400390625 30 180 c 0
 30 196.599609375 43.400390625 210 60 210 c 2
 150 210 l 1
 150 273 l 1
 81.599609375 287 30 347.599609375 30 420 c 0
 30 436.599609375 43.400390625 450 60 450 c 0
 76.599609375 450 90 436.599609375 90 420 c 0
 90 380.799804688 115.099609375 347.5 150 335.099609375 c 1
 150 395.099609375 l 1
 115.099609375 407.5 90 440.900390625 90 480 c 2
 90 570 l 1
 60 570 l 2
 43.400390625 570 30 583.400390625 30 600 c 0
 30 616.599609375 43.400390625 630 60 630 c 2
 150 630 l 1
 150 660 l 2
 150 676.599609375 163.400390625 690 180 690 c 0
 196.599609375 690 210 676.599609375 210 660 c 2
 210 630 l 1
 300 630 l 2
 316.599609375 630 330 616.599609375 330 600 c 0
 330 583.400390625 316.599609375 570 300 570 c 2
 270 570 l 1
 270 480 l 2
210 570 m 1
 150 570 l 1
 150 480 l 2
 150 463.5 163.5 450 180 450 c 0
 196.5 450 210 463.5 210 480 c 2
 210 570 l 1
660 450 m 2
 676.599609375 450 690 436.599609375 690 420 c 0
 690 403.400390625 676.599609375 390 660 390 c 2
 450 390 l 1
 450 -120 l 2
 450 -136.599609375 436.599609375 -150 420 -150 c 0
 403.400390625 -150 390 -136.599609375 390 -120 c 2
 390 540 l 2
 390 589.599609375 430.400390625 630 480 630 c 2
 600 630 l 2
 616.5 630 630 643.5 630 660 c 0
 630 676.599609375 643.400390625 690 660 690 c 0
 676.599609375 690 690 676.599609375 690 660 c 0
 690 610.400390625 649.599609375 570 600 570 c 2
 480 570 l 2
 463.5 570 450 556.5 450 540 c 2
 450 450 l 1
 660 450 l 2
600 330 m 0
 616.599609375 330 630 316.599609375 630 300 c 2
 630 -120 l 2
 630 -136.599609375 616.599609375 -150 600 -150 c 0
 583.400390625 -150 570 -136.599609375 570 -120 c 2
 570 300 l 2
 570 316.599609375 583.400390625 330 600 330 c 0
EndSplineSet
EndChar

StartChar: uni7E41
Encoding: 32321 32321 3
Width: 720
Flags: HW
LayerCount: 2
Fore
SplineSet
207 630 m 1
 193 561.599609375 132.400390625 510 60 510 c 0
 43.400390625 510 30 523.400390625 30 540 c 0
 30 556.599609375 43.400390625 570 60 570 c 0
 109.599609375 570 150 610.400390625 150 660 c 0
 150 676.599609375 163.400390625 690 180 690 c 2
 300 690 l 2
 316.599609375 690 330 676.599609375 330 660 c 0
 330 643.400390625 316.599609375 630 300 630 c 2
 207 630 l 1
480 -30 m 0
 529.599609375 -30 570 -70.400390625 570 -120 c 0
 570 -136.599609375 556.599609375 -150 540 -150 c 0
 523.400390625 -150 510 -136.599609375 510 -120 c 0
 510 -103.5 496.5 -90 480 -90 c 0
 463.400390625 -90 450 -76.599609375 450 -60 c 0
 450 -43.400390625 463.400390625 -30 480 -30 c 0
240 -30 m 0
 256.599609375 -30 270 -43.400390625 270 -60 c 0
 270 -76.599609375 256.599609375 -90 240 -90 c 0
 223.5 -90 210 -103.5 210 -120 c 0
 210 -136.599609375 196.599609375 -150 180 -150 c 0
 163.400390625 -150 150 -136.599609375 150 -120 c 0
 150 -70.400390625 190.400390625 -30 240 -30 c 0
540 90 m 2
 556.599609375 90 570 76.599609375 570 60 c 0
 570 43.400390625 556.599609375 30 540 30 c 2
 390 30 l 1
 390 -120 l 2
 390 -136.599609375 376.599609375 -150 360 -150 c 0
 343.400390625 -150 330 -136.599609375 330 -120 c 2
 330 30 l 1
 240 30 l 2
 190.400390625 30 150 70.400390625 150 120 c 0
 150 136.599609375 163.400390625 150 180 150 c 0
 196.599609375 150 210 136.599609375 210 120 c 0
 210 103.5 223.5 90 240 90 c 2
 330 90 l 1
 330 150 l 1
 240 150 l 2
 190.400390625 150 150 190.400390625 150 240 c 0
 150 256.599609375 163.400390625 270 180 270 c 0
 196.599609375 270 210 256.599609375 210 240 c 0
 210 223.5 223.5 210 240 210 c 2
 330 210 l 1
 330 240 l 2
 330 256.599609375 343.400390625 270 360 270 c 0
 376.599609375 270 390 256.599609375 390 240 c 2
 390 210 l 1
 480 210 l 2
 496.599609375 210 510 196.599609375 510 180 c 0
 510 163.400390625 496.599609375 150 480 150 c 2
 390 150 l 1
 390 90 l 1
 540 90 l 2
270 330 m 1
 180 330 l 2
 130.400390625 330 90 370.400390625 90 420 c 0
 90 436.599609375 103.400390625 450 120 450 c 0
 136.599609375 450 150 436.599609375 150 420 c 0
 150 403.5 163.5 390 180 390 c 2
 240 390 l 1
 270 390 l 1
 270 510 l 1
 240 510 l 2
 223.400390625 510 210 523.400390625 210 540 c 0
 210 556.599609375 223.400390625 570 240 570 c 2
 330 570 l 1
 330 390 l 1
 360 390 l 2
 376.599609375 390 390 376.599609375 390 360 c 0
 390 343.400390625 376.599609375 330 360 330 c 2
 330 330 l 1
 330 300 l 2
 330 283.400390625 316.599609375 270 300 270 c 0
 283.400390625 270 270 283.400390625 270 300 c 2
 270 330 l 1
261.200195312 441.200195312 m 2
 272.900390625 429.5 272.900390625 410.5 261.200195312 398.799804688 c 0
 255.400390625 392.900390625 247.700195312 390 240 390 c 0
 232.299804688 390 224.700195312 392.900390625 218.799804688 398.799804688 c 2
 158.799804688 458.799804688 l 2
 147.099609375 470.5 147.099609375 489.5 158.799804688 501.200195312 c 0
 170.5 512.900390625 189.5 512.900390625 201.200195312 501.200195312 c 2
 261.200195312 441.200195312 l 2
660 690 m 2
 676.599609375 690 690 676.599609375 690 660 c 0
 690 643.400390625 676.599609375 630 660 630 c 2
 600 630 l 2
 583.5 630 570 616.5 570 600 c 2
 570 570 l 1
 630 570 l 1
 630 480 l 2
 630 422.900390625 607.099609375 371.099609375 570 333.200195312 c 1
 570 300 l 2
 570 283.5 583.5 270 600 270 c 0
 616.599609375 270 630 256.599609375 630 240 c 0
 630 223.400390625 616.599609375 210 600 210 c 0
 553.599609375 210 515.299804688 245.299804688 510.5 290.5 c 1
 483.099609375 277.400390625 452.400390625 270 420 270 c 0
 403.400390625 270 390 283.400390625 390 300 c 0
 390 316.599609375 403.400390625 330 420 330 c 0
 453.700195312 330 484.900390625 341.200195312 510 360.099609375 c 1
 510 376.599609375 496.5 390 480 390 c 2
 420 390 l 2
 403.400390625 390 390 403.400390625 390 420 c 0
 390 436.599609375 403.400390625 450 420 450 c 2
 480 450 l 2
 510.400390625 450 537.299804688 434.900390625 553.599609375 411.799804688 c 1
 564.099609375 432.299804688 570 455.400390625 570 480 c 2
 570 510 l 1
 420 510 l 2
 403.400390625 510 390 523.400390625 390 540 c 0
 390 556.599609375 403.400390625 570 420 570 c 2
 510 570 l 1
 510 600 l 2
 510 649.599609375 550.400390625 690 600 690 c 2
 660 690 l 2
EndSplineSet
EndChar

StartChar: uni8BED
Encoding: 35821 35821 4
Width: 720
Flags: HW
LayerCount: 2
Fore
SplineSet
120 630 m 2
 103.400390625 630 90 643.400390625 90 660 c 0
 90 676.599609375 103.400390625 690 120 690 c 2
 240 690 l 2
 256.599609375 690 270 676.599609375 270 660 c 0
 270 643.400390625 256.599609375 630 240 630 c 2
 120 630 l 2
300 570 m 2
 316.599609375 570 330 556.599609375 330 540 c 0
 330 523.400390625 316.599609375 510 300 510 c 2
 60 510 l 2
 43.400390625 510 30 523.400390625 30 540 c 0
 30 556.599609375 43.400390625 570 60 570 c 2
 300 570 l 2
300 450 m 2
 316.599609375 450 330 436.599609375 330 420 c 0
 330 403.400390625 316.599609375 390 300 390 c 2
 60 390 l 2
 43.400390625 390 30 403.400390625 30 420 c 0
 30 436.599609375 43.400390625 450 60 450 c 2
 300 450 l 2
300 330 m 2
 316.599609375 330 330 316.599609375 330 300 c 0
 330 283.400390625 316.599609375 270 300 270 c 2
 60 270 l 2
 43.400390625 270 30 283.400390625 30 300 c 0
 30 316.599609375 43.400390625 330 60 330 c 2
 300 330 l 2
660 330 m 2
 676.599609375 330 690 316.599609375 690 300 c 0
 690 283.400390625 676.599609375 270 660 270 c 2
 420 270 l 2
 403.400390625 270 390 283.400390625 390 300 c 0
 390 316.599609375 403.400390625 330 420 330 c 2
 450 330 l 1
 450 510 l 1
 420 510 l 2
 403.400390625 510 390 523.400390625 390 540 c 0
 390 556.599609375 403.400390625 570 420 570 c 2
 450 570 l 1
 450 630 l 1
 420 630 l 2
 403.400390625 630 390 643.400390625 390 660 c 0
 390 676.599609375 403.400390625 690 420 690 c 2
 660 690 l 2
 676.599609375 690 690 676.599609375 690 660 c 0
 690 643.400390625 676.599609375 630 660 630 c 2
 510 630 l 1
 510 570 l 1
 540 570 l 2
 589.599609375 570 630 529.599609375 630 480 c 2
 630 330 l 1
 660 330 l 2
510 510 m 1
 510 330 l 1
 570 330 l 1
 570 480 l 2
 570 496.5 556.5 510 540 510 c 2
 510 510 l 1
240 210 m 0
 256.599609375 210 270 196.599609375 270 180 c 2
 270 -60 l 2
 270 -109.599609375 229.599609375 -150 180 -150 c 0
 130.400390625 -150 90 -109.599609375 90 -60 c 2
 90 180 l 2
 90 196.599609375 103.400390625 210 120 210 c 0
 136.599609375 210 150 196.599609375 150 180 c 2
 150 150 l 1
 210 150 l 1
 210 180 l 2
 210 196.599609375 223.400390625 210 240 210 c 0
180 -90 m 0
 196.5 -90 210 -76.5 210 -60 c 2
 210 90 l 1
 150 90 l 1
 150 -60 l 2
 150 -76.5 163.5 -90 180 -90 c 0
660 210 m 0
 676.599609375 210 690 196.599609375 690 180 c 2
 690 -60 l 2
 690 -109.599609375 649.599609375 -150 600 -150 c 2
 480 -150 l 2
 430.400390625 -150 390 -109.599609375 390 -60 c 2
 390 180 l 2
 390 196.599609375 403.400390625 210 420 210 c 0
 436.599609375 210 450 196.599609375 450 180 c 2
 450 150 l 1
 630 150 l 1
 630 180 l 2
 630 196.599609375 643.400390625 210 660 210 c 0
600 -90 m 2
 616.5 -90 630 -76.5 630 -60 c 2
 630 90 l 1
 450 90 l 1
 450 -60 l 2
 450 -76.5 463.5 -90 480 -90 c 2
 600 -90 l 2
EndSplineSet
EndChar

StartChar: comma
Encoding: 44 44 5
Width: 360
Flags: HW
LayerCount: 2
Fore
SplineSet
193.400390625 26.7998046875 m 0
 208.200195312 19.400390625 214.200195312 1.400390625 206.900390625 -13.400390625 c 2
 146.900390625 -133.400390625 l 2
 141.599609375 -143.900390625 131 -150 120 -150 c 0
 115.5 -150 110.900390625 -149 106.599609375 -146.799804688 c 0
 91.7998046875 -139.400390625 85.7998046875 -121.400390625 93.2001953125 -106.599609375 c 2
 153.200195312 13.400390625 l 2
 160.599609375 28.2001953125 178.599609375 34.2001953125 193.400390625 26.7998046875 c 0
EndSplineSet
EndChar

StartChar: period
Encoding: 46 46 6
Width: 360
Flags: HW
LayerCount: 2
Fore
SplineSet
120 -30 m 0
 136.599609375 -30 150 -43.400390625 150 -60 c 2
 150 -120 l 2
 150 -136.599609375 136.599609375 -150 120 -150 c 0
 103.400390625 -150 90 -136.599609375 90 -120 c 2
 90 -60 l 2
 90 -43.400390625 103.400390625 -30 120 -30 c 0
EndSplineSet
EndChar

StartChar: uni3002
Encoding: 12290 12290 7
Width: 720
Flags: HW
LayerCount: 2
Fore
SplineSet
180 30 m 0
 229.599609375 30 270 -10.400390625 270 -60 c 0
 270 -109.599609375 229.599609375 -150 180 -150 c 0
 130.400390625 -150 90 -109.599609375 90 -60 c 0
 90 -10.400390625 130.400390625 30 180 30 c 0
180 -90 m 0
 196.5 -90 210 -76.5 210 -60 c 0
 210 -43.5 196.5 -30 180 -30 c 0
 163.5 -30 150 -43.5 150 -60 c 0
 150 -76.5 163.5 -90 180 -90 c 0
EndSplineSet
EndChar

StartChar: uniFF0C
Encoding: 65292 65292 8
Width: 720
Flags: HW
LayerCount: 2
Fore
SplineSet
240 30 m 0
 256.599609375 30 270 16.599609375 270 0 c 2
 270 -60 l 2
 270 -109.599609375 229.599609375 -150 180 -150 c 0
 163.400390625 -150 150 -136.599609375 150 -120 c 0
 150 -103.400390625 163.400390625 -90 180 -90 c 0
 196.5 -90 210 -76.5 210 -60 c 2
 210 0 l 2
 210 16.599609375 223.400390625 30 240 30 c 0
EndSplineSet
EndChar

StartChar: exclam
Encoding: 33 33 9
Width: 360
Flags: HW
LayerCount: 2
Fore
SplineSet
120 -30 m 0
 136.599609375 -30 150 -43.400390625 150 -60 c 2
 150 -120 l 2
 150 -136.599609375 136.599609375 -150 120 -150 c 0
 103.400390625 -150 90 -136.599609375 90 -120 c 2
 90 -60 l 2
 90 -43.400390625 103.400390625 -30 120 -30 c 0
120 510 m 0
 136.599609375 510 150 496.599609375 150 480 c 2
 150 60 l 2
 150 43.400390625 136.599609375 30 120 30 c 0
 103.400390625 30 90 43.400390625 90 60 c 2
 90 480 l 2
 90 496.599609375 103.400390625 510 120 510 c 0
EndSplineSet
EndChar

StartChar: quotedbl
Encoding: 34 34 10
Width: 360
Flags: HW
LayerCount: 2
Fore
SplineSet
120 510 m 0
 136.599609375 510 150 496.599609375 150 480 c 2
 150 360 l 2
 150 343.400390625 136.599609375 330 120 330 c 0
 103.400390625 330 90 343.400390625 90 360 c 2
 90 480 l 2
 90 496.599609375 103.400390625 510 120 510 c 0
240 510 m 0
 256.599609375 510 270 496.599609375 270 480 c 2
 270 360 l 2
 270 343.400390625 256.599609375 330 240 330 c 0
 223.400390625 330 210 343.400390625 210 360 c 2
 210 480 l 2
 210 496.599609375 223.400390625 510 240 510 c 0
EndSplineSet
EndChar

StartChar: uniFF01
Encoding: 65281 65281 11
Width: 720
Flags: HW
LayerCount: 2
Fore
SplineSet
180 -30 m 0
 196.599609375 -30 210 -43.400390625 210 -60 c 2
 210 -120 l 2
 210 -136.599609375 196.599609375 -150 180 -150 c 0
 163.400390625 -150 150 -136.599609375 150 -120 c 2
 150 -60 l 2
 150 -43.400390625 163.400390625 -30 180 -30 c 0
180 510 m 0
 196.599609375 510 210 496.599609375 210 480 c 2
 210 60 l 2
 210 43.400390625 196.599609375 30 180 30 c 0
 163.400390625 30 150 43.400390625 150 60 c 2
 150 480 l 2
 150 496.599609375 163.400390625 510 180 510 c 0
EndSplineSet
EndChar

StartChar: numbersign
Encoding: 35 35 12
Width: 360
Flags: HW
LayerCount: 2
Fore
SplineSet
300 150 m 2
 316.599609375 150 330 136.599609375 330 120 c 0
 330 103.400390625 316.599609375 90 300 90 c 2
 270 90 l 1
 270 0 l 2
 270 -16.599609375 256.599609375 -30 240 -30 c 0
 223.400390625 -30 210 -16.599609375 210 0 c 2
 210 90 l 1
 150 90 l 1
 150 0 l 2
 150 -16.599609375 136.599609375 -30 120 -30 c 0
 103.400390625 -30 90 -16.599609375 90 0 c 2
 90 90 l 1
 60 90 l 2
 43.400390625 90 30 103.400390625 30 120 c 0
 30 136.599609375 43.400390625 150 60 150 c 2
 90 150 l 1
 90 270 l 1
 60 270 l 2
 43.400390625 270 30 283.400390625 30 300 c 0
 30 316.599609375 43.400390625 330 60 330 c 2
 90 330 l 1
 90 420 l 2
 90 436.599609375 103.400390625 450 120 450 c 0
 136.599609375 450 150 436.599609375 150 420 c 2
 150 330 l 1
 210 330 l 1
 210 420 l 2
 210 436.599609375 223.400390625 450 240 450 c 0
 256.599609375 450 270 436.599609375 270 420 c 2
 270 330 l 1
 300 330 l 2
 316.599609375 330 330 316.599609375 330 300 c 0
 330 283.400390625 316.599609375 270 300 270 c 2
 270 270 l 1
 270 150 l 1
 300 150 l 2
150 150 m 1
 210 150 l 1
 210 270 l 1
 150 270 l 1
 150 150 l 1
EndSplineSet
EndChar

StartChar: dollar
Encoding: 36 36 13
Width: 360
Flags: HW
LayerCount: 2
Fore
SplineSet
210 207 m 1
 278.400390625 193 330 132.5 330 60 c 0
 330 -12.5 278.400390625 -73.099609375 210 -87 c 1
 210 -120 l 2
 210 -136.599609375 196.599609375 -150 180 -150 c 0
 163.400390625 -150 150 -136.599609375 150 -120 c 2
 150 -87 l 1
 81.599609375 -73 30 -12.400390625 30 60 c 0
 30 76.599609375 43.400390625 90 60 90 c 0
 76.599609375 90 90 76.599609375 90 60 c 0
 90 20.7998046875 115.099609375 -12.5 150 -24.900390625 c 1
 150 153 l 1
 81.599609375 167 30 227.599609375 30 300 c 0
 30 372.400390625 81.599609375 433 150 447 c 1
 150 480 l 2
 150 496.599609375 163.400390625 510 180 510 c 0
 196.599609375 510 210 496.599609375 210 480 c 2
 210 447 l 1
 278.400390625 433 330 372.400390625 330 300 c 0
 330 283.400390625 316.599609375 270 300 270 c 0
 283.400390625 270 270 283.400390625 270 300 c 0
 270 339.200195312 244.900390625 372.5 210 384.900390625 c 1
 210 207 l 1
90 300 m 0
 90 260.900390625 115.099609375 227.5 150 215.200195312 c 1
 150 384.900390625 l 1
 115.099609375 372.5 90 339.099609375 90 300 c 0
210 -24.900390625 m 1
 244.900390625 -12.5 270 20.7998046875 270 60 c 0
 270 99.2001953125 244.900390625 132.5 210 144.900390625 c 1
 210 -24.900390625 l 1
EndSplineSet
EndChar

StartChar: percent
Encoding: 37 37 14
Width: 360
Flags: HW
LayerCount: 2
Fore
SplineSet
120 210 m 0
 70.400390625 210 30 250.400390625 30 300 c 0
 30 349.599609375 70.400390625 390 120 390 c 0
 169.599609375 390 210 349.599609375 210 300 c 0
 210 250.400390625 169.599609375 210 120 210 c 0
120 330 m 0
 103.5 330 90 316.5 90 300 c 0
 90 283.5 103.5 270 120 270 c 0
 136.5 270 150 283.5 150 300 c 0
 150 316.5 136.5 330 120 330 c 0
240 30 m 0
 289.599609375 30 330 -10.400390625 330 -60 c 0
 330 -109.599609375 289.599609375 -150 240 -150 c 0
 190.400390625 -150 150 -109.599609375 150 -60 c 0
 150 -10.400390625 190.400390625 30 240 30 c 0
240 -90 m 0
 256.5 -90 270 -76.5 270 -60 c 0
 270 -43.5 256.5 -30 240 -30 c 0
 223.5 -30 210 -43.5 210 -60 c 0
 210 -76.5 223.5 -90 240 -90 c 0
316.599609375 325 m 0
 330.400390625 315.799804688 334.200195312 297.099609375 324.900390625 283.5 c 2
 84.900390625 -76.5 l 2
 79.099609375 -85.2001953125 69.599609375 -89.900390625 59.900390625 -89.900390625 c 0
 54.2001953125 -89.900390625 48.400390625 -88.2998046875 43.2998046875 -84.900390625 c 0
 29.5 -75.7001953125 25.7998046875 -57.099609375 35 -43.2998046875 c 2
 275 316.700195312 l 2
 284.200195312 330.5 302.799804688 334.200195312 316.599609375 325 c 0
EndSplineSet
EndChar

StartChar: ampersand
Encoding: 38 38 15
Width: 360
Flags: HW
LayerCount: 2
Fore
SplineSet
327.599609375 -108.200195312 m 2
 334.099609375 -123.400390625 327 -141 311.799804688 -147.599609375 c 0
 308 -149.200195312 303.900390625 -150 300 -150 c 0
 288.299804688 -150 277.299804688 -143.200195312 272.400390625 -131.799804688 c 2
 247.599609375 -73.900390625 l 1
 227.299804688 -84.2001953125 204.299804688 -90 180 -90 c 0
 97.2998046875 -90 30 -22.7001953125 30 60 c 0
 30 125.099609375 71.599609375 180.599609375 129.599609375 201.299804688 c 1
 92.400390625 288.200195312 l 2
 85.900390625 303.400390625 93 321 108.099609375 327.700195312 c 0
 123.299804688 334.200195312 141 327.099609375 147.5 311.900390625 c 2
 190.900390625 210.700195312 l 1
 235.400390625 216.099609375 270 254.099609375 270 300 c 0
 270 349.599609375 229.599609375 390 180 390 c 2
 120 390 l 2
 103.400390625 390 90 403.400390625 90 420 c 0
 90 436.599609375 103.400390625 450 120 450 c 2
 180 450 l 2
 262.700195312 450 330 382.700195312 330 300 c 0
 330 229.400390625 281 170 215.200195312 154.200195312 c 1
 266.400390625 34.7001953125 l 1
 268.700195312 42.7001953125 270 51.2001953125 270 60 c 2
 270 120 l 2
 270 136.599609375 283.400390625 150 300 150 c 0
 316.599609375 150 330 136.599609375 330 120 c 2
 330 60 l 2
 330 24.099609375 317.299804688 -9 296.200195312 -34.7998046875 c 1
 327.599609375 -108.200195312 l 2
180 -30 m 0
 195.900390625 -30 210.900390625 -25.7998046875 223.900390625 -18.5 c 1
 153.400390625 146 l 1
 116.700195312 134.599609375 90 100.400390625 90 60 c 0
 90 10.400390625 130.400390625 -30 180 -30 c 0
EndSplineSet
EndChar

StartChar: quotesingle
Encoding: 39 39 16
Width: 360
Flags: HW
LayerCount: 2
Fore
SplineSet
180 510 m 0
 196.599609375 510 210 496.599609375 210 480 c 2
 210 360 l 2
 210 343.400390625 196.599609375 330 180 330 c 0
 163.400390625 330 150 343.400390625 150 360 c 2
 150 480 l 2
 150 496.599609375 163.400390625 510 180 510 c 0
EndSplineSet
EndChar

StartChar: parenleft
Encoding: 40 40 17
Width: 360
Flags: HW
LayerCount: 2
Fore
SplineSet
300 -90 m 0
 316.599609375 -90 330 -103.400390625 330 -120 c 0
 330 -136.599609375 316.599609375 -150 300 -150 c 0
 184.200195312 -150 90 -55.7998046875 90 60 c 2
 90 300 l 2
 90 415.799804688 184.200195312 510 300 510 c 0
 316.599609375 510 330 496.599609375 330 480 c 0
 330 463.400390625 316.599609375 450 300 450 c 0
 217.299804688 450 150 382.700195312 150 300 c 2
 150 60 l 2
 150 -22.7001953125 217.299804688 -90 300 -90 c 0
EndSplineSet
EndChar

StartChar: parenright
Encoding: 41 41 18
Width: 360
Flags: HW
LayerCount: 2
Fore
SplineSet
60 510 m 0
 175.799804688 510 270 415.799804688 270 300 c 2
 270 60 l 2
 270 -55.7998046875 175.799804688 -150 60 -150 c 0
 43.400390625 -150 30 -136.599609375 30 -120 c 0
 30 -103.400390625 43.400390625 -90 60 -90 c 0
 142.700195312 -90 210 -22.7001953125 210 60 c 2
 210 300 l 2
 210 382.700195312 142.700195312 450 60 450 c 0
 43.400390625 450 30 463.400390625 30 480 c 0
 30 496.599609375 43.400390625 510 60 510 c 0
EndSplineSet
EndChar

StartChar: asterisk
Encoding: 42 42 19
Width: 360
Flags: HW
LayerCount: 2
Fore
SplineSet
222.400390625 240 m 1
 321.200195312 141.200195312 l 2
 332.900390625 129.5 332.900390625 110.5 321.200195312 98.7998046875 c 0
 315.400390625 92.900390625 307.700195312 90 300 90 c 0
 292.299804688 90 284.700195312 92.900390625 278.799804688 98.7998046875 c 2
 210 167.599609375 l 1
 210 60 l 2
 210 43.400390625 196.599609375 30 180 30 c 0
 163.400390625 30 150 43.400390625 150 60 c 2
 150 167.599609375 l 1
 81.2001953125 98.7998046875 l 2
 75.400390625 92.900390625 67.7001953125 90 60 90 c 0
 52.2998046875 90 44.7001953125 92.900390625 38.7998046875 98.7998046875 c 0
 27.099609375 110.5 27.099609375 129.5 38.7998046875 141.200195312 c 2
 137.599609375 240 l 1
 38.7998046875 338.799804688 l 2
 27.099609375 350.5 27.099609375 369.5 38.7998046875 381.200195312 c 0
 50.5 392.900390625 69.5 392.900390625 81.2001953125 381.200195312 c 2
 150 312.400390625 l 1
 150 420 l 2
 150 436.599609375 163.400390625 450 180 450 c 0
 196.599609375 450 210 436.599609375 210 420 c 2
 210 312.400390625 l 1
 278.799804688 381.200195312 l 2
 290.5 392.900390625 309.5 392.900390625 321.200195312 381.200195312 c 0
 332.900390625 369.5 332.900390625 350.5 321.200195312 338.799804688 c 2
 222.400390625 240 l 1
EndSplineSet
EndChar

StartChar: plus
Encoding: 43 43 20
Width: 360
Flags: HW
LayerCount: 2
Fore
SplineSet
300 210 m 2
 316.599609375 210 330 196.599609375 330 180 c 0
 330 163.400390625 316.599609375 150 300 150 c 2
 210 150 l 1
 210 60 l 2
 210 43.400390625 196.599609375 30 180 30 c 0
 163.400390625 30 150 43.400390625 150 60 c 2
 150 150 l 1
 60 150 l 2
 43.400390625 150 30 163.400390625 30 180 c 0
 30 196.599609375 43.400390625 210 60 210 c 2
 150 210 l 1
 150 300 l 2
 150 316.599609375 163.400390625 330 180 330 c 0
 196.599609375 330 210 316.599609375 210 300 c 2
 210 210 l 1
 300 210 l 2
EndSplineSet
EndChar
